<?xml version="1.0" standalone="no"?><svg xmlns="http://www.w3.org/2000/svg" viewBox="0 0 1440 320"><path fill=" #042f1a" fill-opacity="1" d="M0,96L16,85.3C32,75,64,53,96,80C128,107,160,181,192,192C224,203,256,149,288,117.3C320,85,352,75,384,74.7C416,75,448,85,480,122.7C512,160,544,224,576,224C608,224,640,160,672,154.7C704,149,736,203,768,186.7C800,171,832,85,864,69.3C896,53,928,107,960,154.7C992,203,1024,245,1056,229.3C1088,213,1120,139,1152,96C1184,53,1216,43,1248,85.3C1280,128,1312,224,1344,224C1376,224,1408,128,1424,80L1440,32L1440,320L1424,320C1408,320,1376,320,1344,320C1312,320,1280,320,1248,320C1216,320,1184,320,1152,320C1120,320,1088,320,1056,320C1024,320,992,320,960,320C928,320,896,320,864,320C832,320,800,320,768,320C736,320,704,320,672,320C640,320,608,320,576,320C544,320,512,320,480,320C448,320,416,320,384,320C352,320,320,320,288,320C256,320,224,320,192,320C160,320,128,320,96,320C64,320,32,320,16,320L0,320Z"></path></svg>